<svg width="63" height="63" viewBox="0 0 63 63" fill="none" xmlns="http://www.w3.org/2000/svg">
<circle cx="31.5" cy="31.5" r="31.5" fill="#D9D9D9"/>
<path d="M5.41591 40V23.7091H8.86023V37.1602H15.8443V40H5.41591ZM23.5821 40.2386C22.3465 40.2386 21.2779 39.9761 20.3764 39.4511C19.4802 38.9208 18.7882 38.1837 18.3003 37.2398C17.8124 36.2905 17.5685 35.1902 17.5685 33.9386C17.5685 32.6765 17.8124 31.5735 18.3003 30.6295C18.7882 29.6803 19.4802 28.9432 20.3764 28.4182C21.2779 27.8879 22.3465 27.6227 23.5821 27.6227C24.8177 27.6227 25.8836 27.8879 26.7798 28.4182C27.6813 28.9432 28.376 29.6803 28.8639 30.6295C29.3518 31.5735 29.5957 32.6765 29.5957 33.9386C29.5957 35.1902 29.3518 36.2905 28.8639 37.2398C28.376 38.1837 27.6813 38.9208 26.7798 39.4511C25.8836 39.9761 24.8177 40.2386 23.5821 40.2386ZM23.598 37.6136C24.1601 37.6136 24.6295 37.4545 25.006 37.1364C25.3825 36.8129 25.6662 36.3727 25.8571 35.8159C26.0533 35.2591 26.1514 34.6254 26.1514 33.9148C26.1514 33.2042 26.0533 32.5705 25.8571 32.0136C25.6662 31.4568 25.3825 31.0167 25.006 30.6932C24.6295 30.3697 24.1601 30.208 23.598 30.208C23.0306 30.208 22.5533 30.3697 22.1662 30.6932C21.7844 31.0167 21.4954 31.4568 21.2991 32.0136C21.1082 32.5705 21.0128 33.2042 21.0128 33.9148C21.0128 34.6254 21.1082 35.2591 21.2991 35.8159C21.4954 36.3727 21.7844 36.8129 22.1662 37.1364C22.5533 37.4545 23.0306 37.6136 23.598 37.6136ZM37.3037 44.8364C36.206 44.8364 35.2647 44.6852 34.4798 44.383C33.7003 44.086 33.0798 43.6803 32.6185 43.1659C32.1571 42.6515 31.8575 42.0735 31.7196 41.4318L34.8537 41.0102C34.9491 41.2542 35.1003 41.4822 35.3071 41.6943C35.5139 41.9064 35.787 42.0761 36.1264 42.2034C36.4711 42.336 36.8901 42.4023 37.3832 42.4023C38.1204 42.4023 38.7276 42.222 39.2048 41.8614C39.6874 41.5061 39.9287 40.9095 39.9287 40.0716V37.8364H39.7855C39.637 38.1758 39.4143 38.4966 39.1173 38.7989C38.8204 39.1011 38.4385 39.3477 37.9719 39.5386C37.5052 39.7295 36.9484 39.825 36.3014 39.825C35.384 39.825 34.5488 39.6129 33.7957 39.1886C33.048 38.7591 32.4514 38.1042 32.006 37.2239C31.5658 36.3383 31.3457 35.2193 31.3457 33.867C31.3457 32.483 31.5711 31.3269 32.0219 30.3989C32.4726 29.4708 33.0719 28.7761 33.8196 28.3148C34.5726 27.8534 35.3973 27.6227 36.2935 27.6227C36.9776 27.6227 37.5503 27.7394 38.0116 27.9727C38.473 28.2008 38.8442 28.4871 39.1253 28.8318C39.4116 29.1712 39.6317 29.5053 39.7855 29.8341H39.9128V27.7818H43.2776V40.1193C43.2776 41.1587 43.023 42.0284 42.5139 42.7284C42.0048 43.4284 41.2995 43.9534 40.398 44.3034C39.5018 44.6587 38.4704 44.8364 37.3037 44.8364ZM37.3753 37.2795C37.9215 37.2795 38.3829 37.1443 38.7594 36.8739C39.1412 36.5981 39.4329 36.2057 39.6344 35.6966C39.8412 35.1822 39.9446 34.567 39.9446 33.8511C39.9446 33.1352 39.8438 32.5148 39.6423 31.9898C39.4408 31.4595 39.1491 31.0485 38.7673 30.7568C38.3855 30.4652 37.9215 30.3193 37.3753 30.3193C36.8185 30.3193 36.3491 30.4705 35.9673 30.7727C35.5855 31.0697 35.2965 31.4833 35.1003 32.0136C34.9041 32.5439 34.806 33.1564 34.806 33.8511C34.806 34.5564 34.9041 35.1663 35.1003 35.6807C35.3018 36.1898 35.5908 36.5848 35.9673 36.8659C36.3491 37.1417 36.8185 37.2795 37.3753 37.2795ZM51.4946 40.2386C50.259 40.2386 49.1904 39.9761 48.2889 39.4511C47.3927 38.9208 46.7007 38.1837 46.2128 37.2398C45.7249 36.2905 45.481 35.1902 45.481 33.9386C45.481 32.6765 45.7249 31.5735 46.2128 30.6295C46.7007 29.6803 47.3927 28.9432 48.2889 28.4182C49.1904 27.8879 50.259 27.6227 51.4946 27.6227C52.7302 27.6227 53.7961 27.8879 54.6923 28.4182C55.5938 28.9432 56.2885 29.6803 56.7764 30.6295C57.2643 31.5735 57.5082 32.6765 57.5082 33.9386C57.5082 35.1902 57.2643 36.2905 56.7764 37.2398C56.2885 38.1837 55.5938 38.9208 54.6923 39.4511C53.7961 39.9761 52.7302 40.2386 51.4946 40.2386ZM51.5105 37.6136C52.0726 37.6136 52.542 37.4545 52.9185 37.1364C53.295 36.8129 53.5787 36.3727 53.7696 35.8159C53.9658 35.2591 54.0639 34.6254 54.0639 33.9148C54.0639 33.2042 53.9658 32.5705 53.7696 32.0136C53.5787 31.4568 53.295 31.0167 52.9185 30.6932C52.542 30.3697 52.0726 30.208 51.5105 30.208C50.9431 30.208 50.4658 30.3697 50.0787 30.6932C49.6969 31.0167 49.4079 31.4568 49.2116 32.0136C49.0207 32.5705 48.9253 33.2042 48.9253 33.9148C48.9253 34.6254 49.0207 35.2591 49.2116 35.8159C49.4079 36.3727 49.6969 36.8129 50.0787 37.1364C50.4658 37.4545 50.9431 37.6136 51.5105 37.6136Z" fill="#323232"/>
</svg>
