<svg xmlns="http://www.w3.org/2000/svg" width="25" height="24" viewBox="0 0 25 24" fill="none">
  <path d="M7.5 18V7.052C7.49993 6.81932 7.57715 6.59322 7.71952 6.40919C7.86189 6.22515 8.06136 6.09363 8.2866 6.03526C8.51183 5.97689 8.75008 5.99499 8.96391 6.08671C9.17774 6.17843 9.35506 6.33858 9.468 6.542L15.532 17.458C15.6449 17.6614 15.8223 17.8216 16.0361 17.9133C16.2499 18.005 16.4882 18.0231 16.7134 17.9647C16.9386 17.9064 17.1381 17.7748 17.2805 17.5908C17.4229 17.4068 17.5001 17.1807 17.5 16.948V6M5.5 10H19.5M5.5 14H19.5" stroke="#D8D8D8" stroke-width="2" stroke-linecap="round" stroke-linejoin="round"/>
</svg>